# xmcd
#
# Track frame offsets:
#	150
#	19536
#	39242
#	50457
#	61052
#	77115
#	95421
#	105626
#	119474
#	155376
#	174943
#	190734
#	200319
#	216661
#	231282
#	244447
#	264954
#	283622
#	304763
#	325619
#
# Disc length: 4762
#
# Revision: 2
# Processed by: cddbd v1.5.1PL0 Copyright (c) Steve Scherf et al.
# Submitted via: CDex 1.51
# Normalized: r1:DSETVAR1
#
DISCID=0b129814
DTITLE=Various Artist - CROSSBREED ver.6 MIXED by ayu
DYEAR=2004
DGENRE=Jazz
TTITLE0=Orange Pekoe - Bird of paradise
TTITLE1=Buddy rich - Love for sale
TTITLE2=Earnesty Anderson - Love
TTITLE3=Billy paul - Billy boy
TTITLE4=Aura urziceanu - As time goes by
TTITLE5=Kitty Winter - Digno Dschirglo
TTITLE6=Eddie cano - What kind of fool am I
TTITLE7=Johnny lytle - Selim
TTITLE8=Hank mobley - Recado bossa nova
TTITLE9=Sirius B - influencia do jazz
TTITLE10=Madeline Bell - That's What Friends Are for
TTITLE11=Gimmicks - Roda
TTITLE12=Alice babs - Been to canaan
TTITLE13=The singers unlimited - Just in time
TTITLE14=Full Moon - Olivier peters quartet
TTITLE15=Vida nova - Te caliente
TTITLE16=sol - Bird of beauty
TTITLE17=Buddy rich - Nuttlive
TTITLE18=Harold Mabern Trio - Brazil
TTITLE19=Bill evans - Waltz for debby
EXTD=YEAR: 2004
EXTT0=
EXTT1=
EXTT2=
EXTT3=
EXTT4=
EXTT5=
EXTT6=
EXTT7=
EXTT8=
EXTT9=
EXTT10=
EXTT11=
EXTT12=
EXTT13=
EXTT14=
EXTT15=
EXTT16=
EXTT17=
EXTT18=
EXTT19=
PLAYORDER=
